<?xml version="1.0" encoding="utf-8"?>
<!-- Generator: Adobe Illustrator 26.0.3, SVG Export Plug-In . SVG Version: 6.00 Build 0)  -->
<svg version="1.1" id="Layer_1" xmlns="http://www.w3.org/2000/svg" xmlns:xlink="http://www.w3.org/1999/xlink" x="0px" y="0px"
	 viewBox="0 0 190.8 56" style="enable-background:new 0 0 190.8 56;" xml:space="preserve">
<style type="text/css">
	.st0{fill:#FFFFFF;}
</style>
<g>
	<g>
		<path class="st0" d="M6.3,35.5V14.4h-6v21.1l0,0c0,3.3,2.7,6,6,6l0,0h21.1v-6H6.3z"/>
		<polygon class="st0" points="96.8,14.4 96.8,20.4 108.8,20.4 108.8,41.6 114.9,41.6 114.9,20.4 126.9,20.4 126.9,14.4 		"/>
		<path class="st0" d="M28.5,23.7c-2.4,2.4-2.4,6.2,0,8.5l0,0l10.7,10.7l0,0c2.4,2.4,6.2,2.4,8.5,0l0,0l10.7-10.7l0,0
			c2.4-2.4,2.4-6.2,0-8.5l0,0L47.7,13.1l0,0c-2.4-2.4-6.2-2.4-8.5,0l0,0L28.5,23.7L28.5,23.7z M54,28L43.4,38.6L32.7,28l10.7-10.7
			L54,28z"/>
		<path class="st0" d="M93.8,14.4C93.8,14.4,93.7,14.4,93.8,14.4h-6l0,0v18.5l0,0L69.9,15.2c-2.5-2.5-6.8-0.7-6.8,2.8v23.5l0,0h6
			l0,0V22.9l17.8,17.8c2.5,2.5,6.8,0.7,6.8-2.8L93.8,14.4L93.8,14.4z"/>
		<path class="st0" d="M127.9,41.6l11.2-19.5l11.2,19.5h7l-14.7-25.5c-1.6-2.7-5.4-2.7-7,0l-14.7,25.5H127.9z"/>
		<path class="st0" d="M190.5,24.1L190.5,24.1c0-5.4-4.3-9.7-9.7-9.7h-20.4v27.1h6v-7.7h7.9l7.7,7.7h8.5l-7.9-7.9
			C187.1,32.8,190.5,28.9,190.5,24.1z M180.8,27.8h-14.4v-7.4h14.4c2,0,3.7,1.6,3.7,3.7S182.8,27.8,180.8,27.8z"/>
	</g>
</g>
</svg>
